REM DIRINDEX 1\6,1\2\7,1\2\8,1\2\9,1\3\10,1\3\11,1\4\12,1\4\13,1\4\14,1\5\15,1\5\16,1\5\17
REM DIRNAME folder01,folder02,folder03,folder04,folder05,folder06,folder07,folder08,folder09,folder10,folder11,folder12,folder13,folder14,folder15,folder16,folder17
TITLE ""
FILE "P2Q_t_0126-0142.mp3" MP3
  TRACK 01 AUDIO
    TITLE "6:cjc040_1900"
    INDEX 01 00:00:00
  TRACK 02 AUDIO
    TITLE "0:"
    INDEX 01 00:05:71
  TRACK 03 AUDIO
    TITLE "10:cjc040_1901"
    INDEX 01 00:07:07
  TRACK 04 AUDIO
    TITLE "0:"
    INDEX 01 00:08:28
  TRACK 05 AUDIO
    TITLE "11:cjc040_1902"
    INDEX 01 00:09:12
  TRACK 06 AUDIO
    TITLE "0:"
    INDEX 01 00:12:58
  TRACK 07 AUDIO
    TITLE "10:cjc040_1903"
    INDEX 01 00:13:47
  TRACK 08 AUDIO
    TITLE "0:"
    INDEX 01 00:14:58
  TRACK 09 AUDIO
    TITLE "11:cjc040_1904"
    INDEX 01 00:15:36
  TRACK 10 AUDIO
    TITLE "0:"
    INDEX 01 00:18:64
  TRACK 11 AUDIO
    TITLE "10:cjc040_1905"
    INDEX 01 00:19:44
  TRACK 12 AUDIO
    TITLE "0:"
    INDEX 01 00:21:04
  TRACK 13 AUDIO
    TITLE "11:cjc040_1906"
    INDEX 01 00:21:64
  TRACK 14 AUDIO
    TITLE "0:"
    INDEX 01 00:23:03
  TRACK 15 AUDIO
    TITLE "10:cjc040_1907"
    INDEX 01 00:23:61
  TRACK 16 AUDIO
    TITLE "0:"
    INDEX 01 00:25:19
  TRACK 17 AUDIO
    TITLE "11:cjc040_1908"
    INDEX 01 00:25:74
  TRACK 18 AUDIO
    TITLE "0:"
    INDEX 01 00:27:04
  TRACK 19 AUDIO
    TITLE "10:cjc040_1909"
    INDEX 01 00:27:61
  TRACK 20 AUDIO
    TITLE "0:"
    INDEX 01 00:29:19
  TRACK 21 AUDIO
    TITLE "11:cjc040_1910"
    INDEX 01 00:29:72
  TRACK 22 AUDIO
    TITLE "0:"
    INDEX 01 00:31:10
  TRACK 23 AUDIO
    TITLE "10:cjc040_1911"
    INDEX 01 00:31:63
  TRACK 24 AUDIO
    TITLE "0:"
    INDEX 01 00:33:07
  TRACK 25 AUDIO
    TITLE "11:cjc040_1912"
    INDEX 01 00:33:62
  TRACK 26 AUDIO
    TITLE "0:"
    INDEX 01 00:35:68
  TRACK 27 AUDIO
    TITLE "10:cjc040_1913"
    INDEX 01 00:36:50
  TRACK 28 AUDIO
    TITLE "0:"
    INDEX 01 00:37:56
  TRACK 29 AUDIO
    TITLE "11:cjc040_1914"
    INDEX 01 00:38:39
  TRACK 30 AUDIO
    TITLE "0:"
    INDEX 01 00:39:52
  TRACK 31 AUDIO
    TITLE "10:cjc040_1915"
    INDEX 01 00:40:32
  TRACK 32 AUDIO
    TITLE "0:"
    INDEX 01 00:41:38
  TRACK 33 AUDIO
    TITLE "11:cjc040_1916"
    INDEX 01 00:42:18
  TRACK 34 AUDIO
    TITLE "0:"
    INDEX 01 00:43:39
  TRACK 35 AUDIO
    TITLE "10:cjc040_1917"
    INDEX 01 00:44:22
  TRACK 36 AUDIO
    TITLE "0:"
    INDEX 01 00:45:35
  TRACK 37 AUDIO
    TITLE "11:cjc040_1918"
    INDEX 01 00:46:19
  TRACK 38 AUDIO
    TITLE "0:"
    INDEX 01 00:47:27
  TRACK 39 AUDIO
    TITLE "10:cjc040_1919"
    INDEX 01 00:48:10
  TRACK 40 AUDIO
    TITLE "0:"
    INDEX 01 00:49:29
  TRACK 41 AUDIO
    TITLE "11:cjc040_1920"
    INDEX 01 00:50:05
  TRACK 42 AUDIO
    TITLE "0:"
    INDEX 01 00:51:07
  TRACK 43 AUDIO
    TITLE "10:cjc040_1921"
    INDEX 01 00:51:65
  TRACK 44 AUDIO
    TITLE "0:"
    INDEX 01 00:53:02
  TRACK 45 AUDIO
    TITLE "11:cjc040_1922"
    INDEX 01 00:53:57
  TRACK 46 AUDIO
    TITLE "0:"
    INDEX 01 00:54:68
  TRACK 47 AUDIO
    TITLE "10:cjc040_1923"
    INDEX 01 00:55:46
  TRACK 48 AUDIO
    TITLE "0:"
    INDEX 01 00:56:72
  TRACK 49 AUDIO
    TITLE "11:cjc040_1924"
    INDEX 01 00:57:52
  TRACK 50 AUDIO
    TITLE "0:"
    INDEX 01 00:59:73
  TRACK 51 AUDIO
    TITLE "10:cjc040_1925"
    INDEX 01 01:00:55
  TRACK 52 AUDIO
    TITLE "0:"
    INDEX 01 01:02:10
  TRACK 53 AUDIO
    TITLE "11:cjc040_1926"
    INDEX 01 01:02:67
  TRACK 54 AUDIO
    TITLE "0:"
    INDEX 01 01:05:28
  TRACK 55 AUDIO
    TITLE "10:cjc040_1927"
    INDEX 01 01:06:08
  TRACK 56 AUDIO
    TITLE "0:"
    INDEX 01 01:07:31
  TRACK 57 AUDIO
    TITLE "11:cjc040_1928"
    INDEX 01 01:08:13
  TRACK 58 AUDIO
    TITLE "0:"
    INDEX 01 01:09:22
  TRACK 59 AUDIO
    TITLE "10:cjc040_1929"
    INDEX 01 01:10:00
  TRACK 60 AUDIO
    TITLE "0:"
    INDEX 01 01:11:35
  TRACK 61 AUDIO
    TITLE "11:cjc040_1930"
    INDEX 01 01:12:13
  TRACK 62 AUDIO
    TITLE "0:"
    INDEX 01 01:13:38
  TRACK 63 AUDIO
    TITLE "10:cjc040_1931"
    INDEX 01 01:14:16
  TRACK 64 AUDIO
    TITLE "0:"
    INDEX 01 01:15:46
  TRACK 65 AUDIO
    TITLE "11:cjc040_1932"
    INDEX 01 01:16:32
  TRACK 66 AUDIO
    TITLE "0:"
    INDEX 01 01:18:54
  TRACK 67 AUDIO
    TITLE "10:cjc040_1933"
    INDEX 01 01:19:34
  TRACK 68 AUDIO
    TITLE "0:"
    INDEX 01 01:20:46
  TRACK 69 AUDIO
    TITLE "11:cjc040_1934"
    INDEX 01 01:21:29
  TRACK 70 AUDIO
    TITLE "0:"
    INDEX 01 01:23:44
